<svg width="84" height="84" viewBox="0 0 84 84" xmlns="http://www.w3.org/2000/svg"><defs>
      <radialGradient id="mystical-field-Ω7" cx="50%" cy="50%" r="60%">
        <stop offset="0%" style="stop-color:#A8B5A6;stop-opacity:0.15"/>
        <stop offset="40%" style="stop-color:#A8B5A6;stop-opacity:0.08"/>
        <stop offset="80%" style="stop-color:#000040;stop-opacity:0.05"/>
        <stop offset="100%" style="stop-color:transparent;stop-opacity:0"/>
      </radialGradient>
      <filter id="mystical-glow-Ω7">
        <feGaussianBlur stdDeviation="2" result="coloredBlur"/>
        <feMerge> 
          <feMergeNode in="coloredBlur"/>
          <feMergeNode in="SourceGraphic"/>
        </feMerge>
      </filter>
    </defs><circle cx="42" cy="42" r="50.28" 
            fill="url(#mystical-field-Ω7)" stroke="none"/><path d="M 42 42 L 42 42 L 42.18623116161 42.01868544253223 L 42.366870699873935 42.074368372598535 L 42.53642013864908 42.16593419390478 L 42.6895659930384 42.29154382572908 L 42.82126902385308 42.448661312562514 L 42.92684964935672 42.63409196092352 L 43.002068310563985 42.84403049441831 L 43.043199651305585 43.074118583685724 L 43.047099453944 43.31951098148001 L 43.011263365056074 43.57494937639884 L 42.9338765514454 43.834842973130414 L 42.81385354420976 44.0933547139124 L 42.65086765582733 44.3444919763588 L 42.44536949077596 44.582200517942844 L 42.19859421239613 44.80046038807568 L 41.9125573757958 44.993382495553284 L 41.590039286759094 45.15530450262417 L 41.2345579980002 45.280884717322316 L 40.85033120481995 45.365192673074105 L 40.44222745039771 45.403795118775534 L 40.015707194732634 45.39283619319669 L 39.576754438830186 45.329110624147724 L 39.13179972537429 45.21012887458667 L 38.68763545718527 45.03417325382582 L 38.25132458370025 44.80034412108632 L 37.83010380211597 44.50859542958289 L 37.43128250243961 44.15975899066328 L 37.062138753398564 43.755556977721064 L 36.729813678036216 43.29860233696915 L 36.441205603127145 42.79238692493488 L 36.202865384736995 42.24125734886982 L 36.02089431298793 41.650378644259206 L 35.900845982238685 41.02568608133902 L 35.84763347852788 40.373825548043975 L 35.86544318455074 39.70208310819566 L 35.95765643414322 39.018304479111315 L 36.12678016393755 38.33080531034678 L 36.37438761043036 37.64827327323854 L 36.701069987257725 36.979663087642834 L 37.106399951265125 36.334085716267815 L 37.58890752841903 35.720693046885174 L 38.14606902330412 35.14855945727695 L 38.774309280584 34.62656171598055 L 39.46901750518293 34.16325871288969 L 40.22457668196893 33.76677253689689 L 41.03440646734608 33.44467242257964 L 41.89101925640511 33.20386307420691 L 42.7860889621616 33.050478843062024 L 43.71053187995673 32.98978518345227 L 44.65459885230166 33.026088744229206 L 45.60797779926207 33.16265736682322 L 46.55990553877542 33.4016511585507 L 47.49928769184827 33.744065692339646 L 48.414825351053246 34.189688252281734 L 49.29514708865619 34.737067899979294 L 50.12894479441954 35.3834999810978 L 50.905111763837894 36.12502552658678 L 51.61288140626965 36.956445830549804 L 52.24196490993365 37.871352308686575 L 52.78268618763073 38.86217155964058 L 53.2261124336916 39.920225368567195 L 53.564178649184626 41.03580520992955 L 53.789804538747006 42.19826062708363 L 53.89700224820698 43.39610069176912 L 53.880973496890135 44.61710757927867 L 53.73819476137015 45.84846113687327 L 53.466489287437184 47.076873175898946 L 53.065084843009856 48.28873008387977 L 52.53465627520771 49.470242233327454 L 51.877352098246405 50.60759856067449 L 51.096804513468314 51.68712460299396 L 50.19812244678133 52.69544221321088 L 49.187867380025835 53.61962912733074 L 48.074011949198066 54.447376530586084 L 46.86588148182023 55.167142763877564 L 45.5740788458001 55.7683013277732 L 44.21039318057101 56.241281378695504 L 42.787693275847914 56.57769897059374 L 41.319806551697454 56.77047737494487 L 39.82138477356833 56.813954911686224 L 38.30775780530513 56.703978842752136 L 36.79477685991203 56.43798401713306 L 35.298648850006366 56.015055110448905 L 33.83576356571156 55.435971471369555 L 32.42251551556002 54.70323377008169 L 31.07512235437024 53.82107183847129 L 29.809441889794847 52.79543329569837 L 28.64078970529519 51.63395276418413 L 27.583759460904623 50.345901697406454 L 26.652047933763562 48.94211905992132 L 25.85828683776499 47.434923319253265 L 25.213883415718886 45.838006426259675 L 24.728871728468622 44.16631067279983 L 24.41177647387489 42.43588952058893 L 24.269491055283435 40.663753690600586 L 24.3071714850258 38.867703985992755 L 24.528147554922995 37.06615249107423 L 24.933852534159488 35.27793394223748 L 25.52377246697414 33.522109202154496 L 26.295415940281202 31.81776288414037 L 27.244304976675373 30.183797267913846 L 28.363987483535258 28.63872471972292 L 29.64607145650279 27.200460877894717 L 31.080280897973395 25.88612088849916 L 32.65453317096174 24.711820974438176 L 34.35503726844283 23.692487594608362 L 36.16641224067033 22.841676397835915 L 38.071824790703005 22.171403099328778 L 40.053144824054264 21.691988305991703 L 42.091117524590125 21.411918191942416 L 44.165550328014334 21.337722778055042 L 46.25551297886112 21.473873400708143 L 48.33954868908249 21.82270076673931 L 50.395894268116116 22.38433478575305 L 52.402706967605475 23.156667149450914 L 54.33829568035198 24.13533739280422 L 56.18135405400905 25.31374292609368 L 57.9111930266265 26.683073272662355 L 59.50797026429558 28.232368487356844 L 60.95291398142482 29.948601467841428 L 62.228538651899385 31.816783608099602 L 63.31885017454668 33.82009298335394 L 64.20953813865805 35.94002400120586 L 64.88815294420563 38.156557207856984 L 65.34426566595904 40.44834770359384 L 65.56960870976965 42.792930400977035 L 65.55819549139582 45.16694015492582 L 65.30641757166924 47.54634460853152 L 64.81311790457873 49.90668743418619 L 64.07963909477331 52.223339508489936 L 63.10984581565009 54.471755443183284 L 61.91012080600241 56.62773280457073 L 60.489334139404235 58.66767129181679 L 58.858785743220736 60.56882911107945 L 57.03212143037671 62.30957377836965 L 55.0252229937378 63.86962460964993 L 52.85607319707697 65.23028421205635 L 50.54459677502322 66.3746563749668 L 48.11247882406299 67.28784787335023 L 45.58296222459315 67.95715183749884 L 42.98062597731134 68.37221051164647 L 40.33114656310535 68.5251554175827 L 37.661044641461274 68.41072315637669 L 34.99741958583002 68.02634531964283 L 32.367674513172794 67.37221123908421 L 29.79923459708911 66.4513025767819 L 27.31926155782372 65.26939904609841 L 24.954367296645337 63.83505485120358 L 22.730329685490123 62.159545739030406 L 20.671813534583503 60.25678686774429 L 18.80209974054488 58.143222007290746 L 17.142825565127175 55.83768489696638 L 15.713738910476621 53.36123388891333 L 14.532469341191035 50.73696130167488 L 13.614318457418904 47.9897791912367 L 12.972072048024394 45.1461835151775 L 12.615836250013405 42.233998915660244 L 12.552899711853122 39.2821065761686 L 12.787623506191292 36.32015781248964 L 13.321360264235874 33.3782762380427 L 14.152403712379055 30.48675149509222 L 15.275969484454695 27.67572766477292 L 16.68420776340728 24.974889558616 L 18.36624797738981 22.413150151130587 L 20.308275440787405 20.018342436044296 L 22.493639493870088 17.81691897746157 L 24.902992359251105 15.833662381246835 L 27.51445760262819 14.091409831529983 L 30.303826762955104 12.610794722881316 L 33.244782406716254 11.410008271292646 L 36.309145565749645 10.504583807870063 L 39.46714524134456 9.907206249678481 L 42.68770740222629 9.627549004400528 L 45.93876067342484 9.672140301620196 L 49.187555709571434 10.044260656148634 L 52.400995072274284 10.743872860681545 L 55.54597028900257 11.767585579263478 L 58.589702662148596 13.108651272797644 L 61.500084323098235 14.756998836625414 L 64.24601598832162 16.699300971597687 L 66.79773787342887 18.91907594777252 L 69.12715025717253 21.39682305767088 L 71.20812026047957 24.110190697710266 L 73.01677151533592 27.034175665811063 L 74.53175354390797 30.14135192398191 L 75.73448784846691 33.40212675059992 L 76.60938792590977 36.78502190164414 L 77.14405066500797 40.256977116685846" fill="none" 
            stroke="#A8B5A6" stroke-width="2.5"
            stroke-opacity="1" stroke-linecap="round" filter="url(#mystical-glow-Ω7)"/><circle cx="42" cy="42" r="21.80469715698393" 
            fill="#767f74" fill-opacity="0.09"
            stroke="#767f74" stroke-width="2"
            stroke-opacity="0.8" filter="url(#mystical-glow-Ω7)"/><circle cx="42" cy="42" r="3" 
            fill="#A8B5A6" opacity="0.9" filter="url(#mystical-glow-Ω7)"/><text x="42" y="76" text-anchor="middle" 
            font-family="serif" font-size="8" fill="#A8B5A6" opacity="0.4">Ω7</text></svg>