<svg width="512" height="512" viewBox="0 0 512 512" xmlns="http://www.w3.org/2000/svg">
  <defs>
    <radialGradient id="bg" cx="50%" cy="50%">
      <stop offset="0%" style="stop-color:#2d2d4e"/>
      <stop offset="100%" style="stop-color:#1a1a2e"/>
    </radialGradient>
    <linearGradient id="star" x1="0%" y1="0%" x2="100%" y2="100%">
      <stop offset="0%" style="stop-color:#FFD700"/>
      <stop offset="100%" style="stop-color:#FFC700"/>
    </linearGradient>
  </defs>
  
  <!-- Background circle -->
  <circle cx="256" cy="256" r="250" fill="url(#bg)" stroke="#FFD700" stroke-width="6"/>
  
  <!-- Sacred star symbol -->
  <path d="M256 100 L290 200 L390 200 L310 260 L340 360 L256 300 L172 360 L202 260 L122 200 L222 200 Z" 
        fill="url(#star)" 
        stroke="#FFD700" 
        stroke-width="2"
        stroke-linejoin="round"/>
  
  <!-- Inner circle -->
  <circle cx="256" cy="245" r="40" fill="none" stroke="#FFD700" stroke-width="3" opacity="0.8"/>
  
  <!-- Radiating lines -->
  <g stroke="#FFD700" stroke-width="1" opacity="0.4">
    <line x1="256" y1="50" x2="256" y2="80"/>
    <line x1="256" y1="432" x2="256" y2="462"/>
    <line x1="50" y1="256" x2="80" y2="256"/>
    <line x1="432" y1="256" x2="462" y2="256"/>
    <line x1="120" y1="120" x2="142" y2="142"/>
    <line x1="370" y1="370" x2="392" y2="392"/>
    <line x1="392" y1="120" x2="370" y2="142"/>
    <line x1="142" y1="370" x2="120" y2="392"/>
  </g>
</svg>