<svg width="96" height="96" viewBox="0 0 96 96" xmlns="http://www.w3.org/2000/svg">
  <defs>
    <radialGradient id="batch-field-∑19" cx="50%" cy="50%" r="60%">
      <stop offset="0%" style="stop-color:#FFD700;stop-opacity:0.15"/>
      <stop offset="80%" style="stop-color:#FFD700;stop-opacity:0.05"/>
      <stop offset="100%" style="stop-color:transparent;stop-opacity:0"/>
    </radialGradient>
    <filter id="batch-glow-∑19">
      <feGaussianBlur stdDeviation="2" result="coloredBlur"/>
      <feMerge>
        <feMergeNode in="coloredBlur"/>
        <feMergeNode in="SourceGraphic"/>
      </feMerge>
    </filter>
  </defs>
  
  <!-- Field background -->
  <circle cx="48" cy="48" r="57.599999999999994" fill="url(#batch-field-∑19)" stroke="none"/>
  
  <!-- Primary geometry -->
  <path d="M 48 48 L 48 48 L 48.64198612069241 48.19858957887642 L 49.10925106643861 48.758879484242925 L 49.25316569603366 49.57918704980901 L 48.974017644033296 50.505321063079904 L 48.23767699760348 51.35158315498962 L 47.083921154197476 51.926553647700885 L 45.62520392396227 52.060536860716304 L 44.035771385250264 51.63129005864299 L 42.53217168508082 50.584793515654205 L 41.34725042284501 48.948326454162306 L 40.70054954083367 46.83394382889311 L 40.76854013068144 44.43151514527031 L 41.65825539050758 41.991674833368805 L 43.3876261928267 39.800215133132966 L 45.875178341737744 38.14649641393582 L 48.94078906994093 37.28923812579704 L 52.318017732753084 37.42349306908798 L 55.6772450274021 38.65264075852277 L 58.65761283682639 40.96884699211336 L 60.904688652580916 44.24465570420644 L 62.11000507664275 48.23727776363514 L 62.0482386395149 52.605827518181776 L 60.60784714753752 56.94036499838401 L 57.81149000077621 60.80027530815913 L 53.823473339628435 63.75839960981561 L 48.942709108070616 65.4465493303851 L 43.5811348746178 65.59768072797324 L 38.22906468414045 64.08013305458908 L 33.4103741705979 60.91994435584159 L 29.631613920404916 56.30830866247381 L 27.329962020171372 50.59263455049915 L 26.825272349003097 44.25127689658105 L 28.28129699938 37.85368401963847 L 31.68045838248253 32.009263137862746 L 36.815371453534254 27.309555725466325 L 43.2987709030325 24.269190722231446 L 50.591724571988685 23.271444446896016 L 58.04818276305974 24.524026768626847 L 64.97220484344078 28.02993423264998 L 70.68279441072939 33.57691996414831 L 74.58031308801185 40.74743768428941 L 76.20804174118035 48.948976884769365 L 75.30267566266733 57.462701393322774 L 71.82837685951284 65.50642968286317 L 65.99040085849113 72.30644105892101 L 58.22614950716099 77.17152053385615 L 49.17361042523346 79.56218773421422 L 39.619331357969145 79.14825724037351 L 30.430133318393533 75.84875165587454" fill="none" stroke="#FFD700" 
                stroke-width="2" stroke-opacity="0.8" filter="url(#batch-glow-∑19)"/>
  
  <!-- Secondary elements -->
  <circle cx="48" cy="48" r="19.200000000000003" 
          fill="none" stroke="#FFD700" stroke-width="2" 
          stroke-opacity="0.7" filter="url(#batch-glow-∑19)"/>
  
  <!-- Center point -->
  <circle cx="48" cy="48" r="3" 
          fill="#FFD700" opacity="0.9" filter="url(#batch-glow-∑19)"/>
  
  <!-- Label -->
  <text x="48" y="88" text-anchor="middle" 
        font-family="serif" font-size="8" fill="#FFD700" opacity="0.6">∑19</text>
</svg>