<svg width="100" height="100" viewBox="0 0 100 100" xmlns="http://www.w3.org/2000/svg">
  <defs>
    <radialGradient id="batch-field-∑29" cx="50%" cy="50%" r="60%">
      <stop offset="0%" style="stop-color:#B0C4DE;stop-opacity:0.15"/>
      <stop offset="80%" style="stop-color:#B0C4DE;stop-opacity:0.05"/>
      <stop offset="100%" style="stop-color:transparent;stop-opacity:0"/>
    </radialGradient>
    <filter id="batch-glow-∑29">
      <feGaussianBlur stdDeviation="2" result="coloredBlur"/>
      <feMerge>
        <feMergeNode in="coloredBlur"/>
        <feMergeNode in="SourceGraphic"/>
      </feMerge>
    </filter>
  </defs>
  
  <!-- Field background -->
  <circle cx="50" cy="50" r="60" fill="url(#batch-field-∑29)" stroke="none"/>
  
  <!-- Primary geometry -->
  <path d="M 50 50 L 50 50 L 50.66873554238792 50.20686414466294 L 51.15546986087355 50.79049946275305 L 51.3053809333684 51.64498651021771 L 51.014601712534684 52.60970944070824 L 50.24758020583696 53.49123245311419 L 49.04575120228903 54.09016004968842 L 47.5262540874607 54.22972589657948 L 45.87059519296903 53.78259381108644 L 44.30434550529252 52.69249324547313 L 43.07005252379688 50.98784005641907 L 42.39640577170174 48.785358155096986 L 42.467229302793164 46.282828276323244 L 43.394016031778726 43.74132795142584 L 45.19544395086115 41.458557430346836 L 47.78664410597681 39.73593376451648 L 50.9799886145218 38.84295638103858 L 54.49793513828446 38.982805280299985 L 57.99713023687718 40.263167456794555 L 61.101680038360826 42.67588228345142 L 63.442384013105126 46.08818302521504 L 64.6979219548362 50.24716433711994 L 64.63358191616136 54.79773699810602 L 63.13317411201825 59.312880206650014 L 60.22030208414189 63.33362011266576 L 56.06611806211295 66.41499959355792 L 50.981988654240226 68.17348888581782 L 45.39701549439355 68.33091742497213 L 39.82194237931296 66.7501385985303 L 34.80247309437281 63.45827537066832 L 30.866264500421785 58.65448819007689 L 28.46871043767851 52.70066099010328 L 27.942992030211553 46.09508010060526 L 29.45968437435416 39.43092085379008 L 33.00047748175264 33.3429824352737 L 38.34934526409818 28.447453880694084 L 45.10288635732552 25.280407002324424 L 52.69971309582155 24.24108796551668 L 60.466857044853896 25.545861217319626 L 67.67938004525081 29.19784815901039 L 73.62791084450978 34.97595829598782 L 77.68782613334568 42.44524758780146 L 79.38337681372954 50.98851758830142 L 78.4402871486118 59.85698061804456 L 74.82122589532588 68.23586425298247 L 68.7400008942616 75.31920943637606 L 60.652239069959364 80.38700055610016 L 51.22251085961819 82.87727888980649 L 41.27013683121786 82.44610129205574 L 31.698055539993266 79.00911630820264" fill="none" stroke="#B0C4DE" 
                stroke-width="2" stroke-opacity="0.8" filter="url(#batch-glow-∑29)"/>
  
  <!-- Secondary elements -->
  <circle cx="50" cy="50" r="20" 
          fill="none" stroke="#B0C4DE" stroke-width="2" 
          stroke-opacity="0.7" filter="url(#batch-glow-∑29)"/>
  
  <!-- Center point -->
  <circle cx="50" cy="50" r="3" 
          fill="#B0C4DE" opacity="0.9" filter="url(#batch-glow-∑29)"/>
  
  <!-- Label -->
  <text x="50" y="92" text-anchor="middle" 
        font-family="serif" font-size="8" fill="#B0C4DE" opacity="0.6">∑29</text>
</svg>