<svg width="96" height="96" viewBox="0 0 96 96" xmlns="http://www.w3.org/2000/svg"><defs>
      <radialGradient id="threshold-field-T8" cx="50%" cy="50%" r="70%">
        <stop offset="0%" style="stop-color:#FFD700;stop-opacity:0.2"/>
        <stop offset="50%" style="stop-color:#FFD700;stop-opacity:0.1"/>
        <stop offset="80%" style="stop-color:#000040;stop-opacity:0.05"/>
        <stop offset="100%" style="stop-color:transparent;stop-opacity:0"/>
      </radialGradient>
      <filter id="transformation-glow-T8">
        <feGaussianBlur stdDeviation="3" result="coloredBlur"/>
        <feMerge> 
          <feMergeNode in="coloredBlur"/>
          <feMergeNode in="SourceGraphic"/>
        </feMerge>
      </filter>
      <filter id="motion-blur-T8">
        <feGaussianBlur in="SourceGraphic" stdDeviation="1,0"/>
      </filter>
    </defs><circle cx="48" cy="48" r="63.2" 
            fill="url(#threshold-field-T8)" stroke="none"/><path d="M 48 48 L 48 48 L 49.576418366642194 48.48764334535282 L 50.72380305117077 49.86345392597933 L 51.0771902319987 51.87774655781879 L 50.39173286461645 54.151899567416024 L 48.58362380785802 56.22992440577341 L 45.750537790041406 57.64178365906967 L 42.168608898806106 57.97078391470049 L 38.265704200707745 56.91675405205956 L 34.573564905128656 54.347046829704354 L 31.663951160210395 50.32864728960458 L 30.075955539640223 45.136710116588176 L 30.24290870442088 39.23746622432719 L 32.42763424826758 33.24635682899125 L 36.67416202766923 27.86515432342617 L 42.78242943272499 23.8043927614929 L 50.310138990842255 21.699366395937382 L 58.60303679783142 22.02903389433763 L 66.85173164391162 25.047247108746348 L 74.17012436719713 30.73476889445917 L 79.68789410242505 38.77862662424997 L 82.64758884856266 48.58264347551121 L 82.49591929872041 59.30976334101552 L 78.95898986999805 69.95336493059517 L 72.09244147625515 79.43150364698728 L 62.29973333432855 86.69527669384443 L 50.31485370861391 90.84058472990822 L 37.14932906048806 91.21169292563886 L 24.007141907396704 87.48530391586132 L 12.174686370008835 79.72535499143966 L 2.895814335957823 68.40132948221706 L -2.755968797969963 54.36630075271698" fill="none" 
            stroke="#4d4100" stroke-width="1.5"
            stroke-opacity="0.3" stroke-linecap="round" filter="url(#motion-blur-T8)"/><path d="M 91.2 48 L 91.2 48 L 89.66503202011606 56.4459201202677 L 86.52328515779288 64.2873837282313 L 81.95212165711636 71.22789614692844 L 76.18164885160361 77.01691225886519 L 69.48363710625779 81.45878238296856 L 62.15902195300702 84.41915128414917 L 54.52455497798763 85.82861105764728 L 46.89918953818388 85.68353016976454 L 39.59078339048277 84.04410286701949 L 32.88367154818807 81.02978025336338 L 27.027610928554438 76.81235166187783 L 22.228526363175856 71.6070381172725 L 18.641398870983156 65.6620350042697 L 16.365535948300266 59.24699567867597 L 15.442354671729262 52.64097979218339 L 15.855696539362306 46.12039867773813 L 17.534583120005866 39.94747542664578 L 20.35821847410181 34.35970045945787 L 24.16295229552719 29.560706568591453 L 28.750840566164214 25.71291354016474 L 33.89938125078852 22.932205179591627 L 39.371963374759574 21.28480501695102 L 44.928549978014914 20.78641562196968 L 50.336119215307704 21.403584900830825 L 55.378412601661395 23.057165477804904 L 59.86458349630307 25.62764450004117 L 63.63639996327706 28.962044694614903 L 66.57373102311709 32.88203638067486 L 68.59813034483906 37.19285677280562 L 69.67442256928015 41.6926088376502 L 69.81029046024753 46.18150782086246 L 69.05395170793292 50.47065907282242 L 67.49009841090819 54.389984815643245 L 65.23434636125765 57.7949680436943 L 62.42650210513744 60.57194615729024 L 59.22300086513391 62.64176193891635 L 55.78889607309493 63.9616614175775 L 52.289790584818746 64.52541310727872 L 48.88409060042277 64.36170706399028 L 45.71593671046513 63.53097131429823 L 42.90912393627248 62.120813894648386 L 40.56226645003627 60.240357882000396 L 38.745395753871264 58.013781863622825 L 37.49810682362725 55.573407451769945 L 36.82928872660831 53.052687636058224 L 36.718398261162754 50.57944473069504 L 37.11816093818649 48.2696849744223 L 37.9585165959728 46.22227981158935 L 39.15157018641417 44.51475355914648 L 40.59726433929878 43.20035618156691 L 42.18946110756381 42.30653135769293 L 43.82210700123276 41.834817352542615 L 45.39515844110818 41.7621449799036 L 46.81996373167417 42.043426719503515 L 48.023831434447956 42.61526721425828 L 48.95356178844868 43.400570956505135 L 49.577775137851404 44.313780533780054 L 49.88793626655358 45.266450302404714 L 49.89804283941597 46.172847061308936 L 49.643016357483134 46.95527173614094 L 49.17590167485649 47.5488140175342 L 48.564042867048556 47.90528434089453" fill="none" 
            stroke="#FFD700" stroke-width="3"
            stroke-opacity="1" stroke-linecap="round" filter="url(#transformation-glow-T8)"/><line x1="29.31025957972806" y1="48" x2="66.68974042027193" y2="48"
             stroke="#ccac00" stroke-width="1.4400000000000002" stroke-opacity="0.32000000000000006" /><line x1="48" y1="29.31025957972806" x2="48" y2="66.68974042027193"
             stroke="#ccac00" stroke-width="1.4400000000000002" stroke-opacity="0.32000000000000006" /><circle cx="48" cy="48" r="4" 
            fill="#FFD700" opacity="1.0" filter="url(#transformation-glow-T8)"/><text x="48" y="90" text-anchor="middle" 
            font-family="serif" font-size="10" font-weight="bold" 
            fill="#FFD700" opacity="0.6">T8</text></svg>