<svg width="88" height="88" viewBox="0 0 88 88" xmlns="http://www.w3.org/2000/svg">
  <defs>
    <radialGradient id="batch-field-Ω41" cx="50%" cy="50%" r="60%">
      <stop offset="0%" style="stop-color:#9370DB;stop-opacity:0.15"/>
      <stop offset="80%" style="stop-color:#9370DB;stop-opacity:0.05"/>
      <stop offset="100%" style="stop-color:transparent;stop-opacity:0"/>
    </radialGradient>
    <filter id="batch-glow-Ω41">
      <feGaussianBlur stdDeviation="2" result="coloredBlur"/>
      <feMerge>
        <feMergeNode in="coloredBlur"/>
        <feMergeNode in="SourceGraphic"/>
      </feMerge>
    </filter>
  </defs>
  
  <!-- Field background -->
  <circle cx="44" cy="44" r="52.8" fill="url(#batch-field-Ω41)" stroke="none"/>
  
  <!-- Primary geometry -->
  <path d="M 44 44 L 44 44 L 44.588487277301375 44.182040447303386 L 45.016813477568725 44.69563952722268 L 45.14873522136419 45.44758812899159 L 44.892849507030526 46.29654430782325 L 44.21787058113652 47.072284558740485 L 43.16026105801435 47.59934084372581 L 41.82310359696542 47.722158788989944 L 40.366123769812745 47.328682553756074 L 38.987824044657415 46.369394056016354 L 37.90164622094126 44.86929924964878 L 37.30883707909753 42.93111517648535 L 37.37116178645798 40.72888888316445 L 38.18673410796528 38.49236859725474 L 39.77199067675781 36.48353053870522 L 42.05224681325959 34.9676217127745 L 44.862389980779184 34.18180161531396 L 47.95818292169033 34.304868646663984 L 51.03747460845192 35.43158736197921 L 53.76947843375753 37.55477640943725 L 55.82929793153251 40.557601062189235 L 56.93417132025586 44.21750461666555 L 56.877552086221996 48.2220085583333 L 55.55719321857606 52.19533458185201 L 52.99386583404486 55.73358569914587 L 49.338183894659394 58.44519964233098 L 44.8641500157314 59.992670219519674 L 39.94937363506632 60.131207333975475 L 35.0433092937954 58.74012196670667 L 30.62617632304807 55.843282326188124 L 27.162312760371172 51.61594960726766 L 25.052465185157093 46.376581671290886 L 24.58983298658617 40.56367048853262 L 25.924522249431664 34.69921035133527 L 29.04042018394232 29.34182454304085 L 33.747423832406405 25.0337594150108 L 39.69053999444645 22.24675816204549 L 46.37574752432296 21.33215740965468 L 53.21083419947143 22.480357871241274 L 59.557854439820716 25.694106379929146 L 64.7925615431686 30.778843300469283 L 68.3652869973442 37.35181787726529 L 69.85737159608199 44.86989547770525 L 69.02745269077839 52.67414294387921 L 65.84267878788677 60.04756054262457 L 60.4912007869502 66.28090430401093 L 53.37397038156424 70.74056048936814 L 45.07580955646401 72.93200542302971 L 36.31772041147172 72.55256913700904 L 27.894288875194075 69.52802235121833" fill="none" stroke="#9370DB" 
                stroke-width="2" stroke-opacity="0.8" filter="url(#batch-glow-Ω41)"/>
  
  <!-- Secondary elements -->
  <circle cx="44" cy="44" r="17.6" 
          fill="none" stroke="#9370DB" stroke-width="2" 
          stroke-opacity="0.7" filter="url(#batch-glow-Ω41)"/>
  
  <!-- Center point -->
  <circle cx="44" cy="44" r="3" 
          fill="#9370DB" opacity="0.9" filter="url(#batch-glow-Ω41)"/>
  
  <!-- Label -->
  <text x="44" y="80" text-anchor="middle" 
        font-family="serif" font-size="8" fill="#9370DB" opacity="0.6">Ω41</text>
</svg>