<svg width="92" height="92" viewBox="0 0 92 92" xmlns="http://www.w3.org/2000/svg">
  <defs>
    <radialGradient id="batch-field-∑2" cx="50%" cy="50%" r="60%">
      <stop offset="0%" style="stop-color:#90EE90;stop-opacity:0.15"/>
      <stop offset="80%" style="stop-color:#90EE90;stop-opacity:0.05"/>
      <stop offset="100%" style="stop-color:transparent;stop-opacity:0"/>
    </radialGradient>
    <filter id="batch-glow-∑2">
      <feGaussianBlur stdDeviation="2" result="coloredBlur"/>
      <feMerge>
        <feMergeNode in="coloredBlur"/>
        <feMergeNode in="SourceGraphic"/>
      </feMerge>
    </filter>
  </defs>
  
  <!-- Field background -->
  <circle cx="46" cy="46" r="55.199999999999996" fill="url(#batch-field-∑2)" stroke="none"/>
  
  <!-- Primary geometry -->
  <path d="M 46 46 L 46 46 L 46.61523669899689 46.1903150130899 L 47.06303227200367 46.7272595057328 L 47.20095045869893 47.513387589400295 L 46.933433575531915 48.40093268545157 L 46.227773789370005 49.21193385686505 L 45.12209110610591 49.76294724571335 L 43.72415376046384 49.89134782485312 L 42.2009475775315 49.47998630619953 L 40.75999786486911 48.47709378583528 L 39.624448321893134 46.908812851905545 L 39.0046933099656 44.88252950268923 L 39.06985095856971 42.580202014217384 L 39.92249474923643 40.24202171531177 L 41.579808434792255 38.14187283591909 L 43.96371257749867 36.55705906335517 L 46.90158952536006 35.7355198705555 L 50.13810032722171 35.864180857875986 L 53.35735981792701 37.042114060250995 L 56.21354563529196 39.261811700775304 L 58.36699329205671 42.401128383197836 L 59.5220881984493 46.22739119015034 L 59.462895362868444 50.413918038257535 L 58.08252018305679 54.56784979011801 L 55.402677917410536 58.2669305036525 L 51.580828617143915 61.101799626073294 L 46.90342956190101 62.71960977495239 L 41.76525425484206 62.864444030974354 L 36.63618698896793 61.410127510647875 L 32.01827524682299 58.381613341014855 L 28.396963340388044 53.962129134870736 L 26.19121360266423 48.48460811089502 L 25.707552667794634 42.407473692556835 L 27.102909624405832 36.27644718548687 L 30.36043928321243 30.6755438404518 L 35.28139764297033 26.171657570238562 L 41.49465544873948 23.25797444213847 L 48.483736048155826 22.30180092827535 L 55.62950848126559 23.502192319934057 L 62.26502964163075 26.862020306289562 L 67.73767797694899 32.1778816323088 L 71.47280004267803 39.04962778077735 L 73.03270666863116 46.909436181237304 L 72.16506417672286 55.068422168600996 L 68.8355278236998 62.77699511274387 L 63.24080082272067 69.29367268146598 L 55.800059944362616 73.95604051161214 L 47.124709990848736 76.24709657862196 L 37.968525884720435 75.85041318869128 L 29.162211096793808 72.68838700354642" fill="none" stroke="#90EE90" 
                stroke-width="2" stroke-opacity="0.8" filter="url(#batch-glow-∑2)"/>
  
  <!-- Secondary elements -->
  <circle cx="46" cy="46" r="18.400000000000002" 
          fill="none" stroke="#90EE90" stroke-width="2" 
          stroke-opacity="0.7" filter="url(#batch-glow-∑2)"/>
  
  <!-- Center point -->
  <circle cx="46" cy="46" r="3" 
          fill="#90EE90" opacity="0.9" filter="url(#batch-glow-∑2)"/>
  
  <!-- Label -->
  <text x="46" y="84" text-anchor="middle" 
        font-family="serif" font-size="8" fill="#90EE90" opacity="0.6">∑2</text>
</svg>